<?xml version="1.0" standalone="no"?>
<!DOCTYPE svg PUBLIC "-//W3C//DTD SVG 1.1//EN" "http://www.w3.org/Graphics/SVG/1.1/DTD/svg11.dtd" >
<svg xmlns="http://www.w3.org/2000/svg">
<metadata></metadata>
<defs>
<font id="concielian_condensedcondensed" horiz-adv-x="1302" >
<font-face units-per-em="2048" ascent="1638" descent="-410" />
<missing-glyph horiz-adv-x="755" />
<glyph horiz-adv-x="2048" />
<glyph horiz-adv-x="2048" />
<glyph unicode="&#xd;" horiz-adv-x="1024" />
<glyph unicode=" "  horiz-adv-x="755" />
<glyph unicode="&#x09;" horiz-adv-x="755" />
<glyph unicode="&#xa0;" horiz-adv-x="755" />
<glyph unicode="!" horiz-adv-x="374" d="M-113 -4l111 217h252l-109 -217h-254zM70 385l252 508l108 209h252l-297 -606l-61 -111h-254z" />
<glyph unicode="&#x22;" horiz-adv-x="665" d="M166 934l194 434h179l-199 -434h-174zM510 930l195 434h178l-199 -434h-174z" />
<glyph unicode="#" horiz-adv-x="1488" d="M16 571h342l-278 -268h168l282 268h248l-282 -268h172l280 268h357l94 93h-359l131 122h332l92 93h-327l280 270h-170l-282 -270h-242l279 270h-170l-285 -270h-371l-90 -93h369l-133 -122h-340zM627 664l129 122h245l-129 -122h-245z" />
<glyph unicode="$" d="M-143 -4h428l-92 -172h217l94 172h192q350 0 428 201l37 73l117 242q68 131 -61 131h-201h-150l160 311h76h368l84 148h-342h-125l76 160h-217l-86 -160h-102q-49 0 -97.5 -4t-95.5 -13q-174 -25 -266 -192l-139 -266q-66 -135 53 -135h199h135l-172 -320l-23 -29h-397z M422 643l131 242q84 78 184 69h54l-160 -311h-209zM582 143l14 29l180 320h230l-140 -287l-6 -8q-31 -53 -119 -56l-123 2h-36z" />
<glyph unicode="%" horiz-adv-x="1546" d="M33 434q6 -63 98 -63h379q123 0 162 100l98 260q8 18 8 43q0 29 -20 43q-23 25 -78 25h-381q-121 0 -158 -94l-100 -265q-12 -23 -8 -49zM162 2h186l1100 840h-184zM217 496l78 211q12 29 57 28h193q45 0 51 -14v6q0 -4 -2 -6l-80 -213q-10 -29 -55 -29h-213 q-35 0 -29 17zM834 63q6 -61 98 -61h381q121 0 157 96l99 262q8 18 8 43q0 70 -98 70h-381q-121 0 -158 -96l-100 -266q-8 -27 -6 -48zM1016 125l78 209q12 31 57 31h192q45 0 54 -9q0 -4 -2 -6l-80 -213q-12 -27 -55 -26h-216q-35 0 -28 14z" />
<glyph unicode="&#x26;" horiz-adv-x="1546" d="M-51 293q0 -20 8 -39q16 -20 28.5 -34.5t22.5 -22.5l223 -195q20 -18 62 -37q51 -6 74 -6q82 0 178 39l467 182l260 -225l229 86l-266 229l334 136l-119 110l-344 -135l-229 199l196 77q80 31 101 93l61 159q10 35 10 54q0 106 -196 106h-285q-221 0 -289 -127 q-4 -10 -19.5 -49t-41.5 -107q-10 -35 -11 -65q10 -31 25 -39l96 -86l-458 -180q-41 -16 -70 -43q-47 -39 -47 -80zM199 309v2l4 4v-4v2q4 2 7 4t7 5q88 45 215 92l217 78l225 -201l-370 -148q-12 -4 -19 -4q-45 -10 -47 -10q-14 0 -22 2l-15 8q-72 63 -117.5 104.5 t-66.5 57.5v2q-8 8 -12 11t-6 5v-10zM604 754l60 159l24 -14q-14 14 -14 27q0 18 37 35q31 12 51 12l209 -2q37 0 49 -17q18 -22 6 -55l-63 -172l-224 -86z" />
<glyph unicode="'" horiz-adv-x="323" d="M166 934l194 434h179l-199 -434h-174z" />
<glyph unicode="(" horiz-adv-x="604" d="M-49 88q-10 63 6 105l342 757q94 156 266 215q90 20 193 21l-68 -162q-61 2 -137 -82l-354 -762q-10 -57 108 -65l-76 -164q-254 0 -280 137z" />
<glyph unicode=")" horiz-adv-x="604" d="M-59 -49l65 162q63 -4 137 82l355 761q10 57 -109 66l76 164q254 0 280 -137q12 -59 -6 -105l-340 -758q-98 -158 -268 -215q-47 -10 -95 -15t-95 -5z" />
<glyph unicode="*" horiz-adv-x="724" d="M45 719h139l176 121l-43 -156h82l33 123l39 -88h143l-114 211l321 217h-137l-186 -121l37 129h-84l-27 -94l-45 86h-113l101 -211z" />
<glyph unicode="+" horiz-adv-x="1284" d="M66 565h577l-119 -313h123l121 313h575l31 86h-575l121 318h-123l-121 -318h-580z" />
<glyph unicode="," horiz-adv-x="380" d="M-113 -4l111 217h252l-176 -373h-129l78 156h-136z" />
<glyph unicode="-" horiz-adv-x="825" d="M27 401l88 152h759l-79 -152h-768z" />
<glyph unicode="." horiz-adv-x="380" d="M-113 -4l111 217h252l-109 -217h-254z" />
<glyph unicode="/" horiz-adv-x="1349" d="M-23 -8l1307 1167h213l-1313 -1167h-207z" />
<glyph unicode="0" d="M-49 119q27 -123 280 -123h465q352 0 428 205l330 680v61q-12 102 -92 139q-31 8 -69 13.5t-81 7.5h-454q-49 0 -97.5 -4t-95.5 -13q-170 -53 -266 -192l-342 -680q-16 -41 -6 -94zM195 174q0 16 4 27l354 684q84 78 184 69h322h43q78 -12 102 -73l-342 -684 q-35 -53 -121 -56l-460 2h-25q-61 -2 -61 31zM551 528q0 -33 31 -53q39 -18 100 -24q49 6 98 24q76 29 76 88q0 74 -127 74q-43 0 -104 -23q-74 -29 -74 -86z" />
<glyph unicode="1" horiz-adv-x="374" d="M-152 -4l109 217l330 655h-193l66 115l248 119h251l-106 -217l-197 -406l-239 -483h-269z" />
<glyph unicode="2" d="M-49 119q27 -123 280 -123h465q350 0 434 209h-264l-6 -8q-31 -53 -119 -56l-481 2q-68 4 -65 31v6q0 6 2 15l2 6l151 291h656h249l199 389v61q-12 102 -92 139q-31 8 -69 13.5t-81 7.5h-417l-58 -148h322h43q78 -12 102 -73l-117 -238h-665q-215 0 -309 -119l-156 -311 q-16 -41 -6 -94z" />
<glyph unicode="3" d="M-59 156v61h247q29 -62 105 -70h37h323q104 0 187 66l133 242h-666l80 151h657l150 291l2 6q4 16 4 21q0 35 -65 39h-482q-90 -10 -123 -62h-260q74 201 426 201h465q252 0 281 -123q12 -49 -6 -94l-340 -680q-96 -139 -267 -193q-47 -8 -96 -12t-96 -4h-457q-43 2 -80 7 t-69 13q-80 37 -90 140z" />
<glyph unicode="4" d="M92 492h914l-140 -287l-6 -8l-102 -201h266l100 201l37 73l293 611l111 217h-267l-94 -217l-117 -238h-665l131 242l100 200h-245l-109 -192z" />
<glyph unicode="5" d="M-49 119q27 -123 280 -123h465q350 0 428 201l37 73l117 242q68 131 -61 131h-795l131 242l41 69h532l86 148h-813l-100 -209l-139 -266q-66 -135 53 -135h793l-140 -287l-6 -8q-31 -53 -119 -56l-483 2q-63 4 -63 31v6q0 6 2 15l2 6h-240q-18 -33 -8 -82z" />
<glyph unicode="6" d="M-49 119q27 -123 280 -123h465q350 0 428 201l37 73l146 305l39 68h-924l131 242q84 78 184 69h322h43q78 -12 102 -73h250v61q-12 102 -92 139q-31 8 -69 13.5t-81 7.5h-454q-49 0 -97.5 -4t-95.5 -13q-170 -53 -266 -192l-342 -680q-16 -41 -6 -94zM195 174v6q0 6 2 15 l2 6l151 291h656l-140 -287l-6 -8q-31 -53 -119 -56l-475 2q-72 -2 -71 31z" />
<glyph unicode="7" d="M295 885q100 147 270 200q47 8 95.5 12.5t97.5 4.5h454q43 -2 81 -7t69 -14q80 -37 92 -139v-61l-330 -680l-100 -205h-258l96 201l342 684q-24 61 -102 73h-43h-322q-102 8 -184 -69h-258z" />
<glyph unicode="8" d="M-49 119q-10 53 6 94l342 680q98 141 266 192q47 8 95.5 12.5t97.5 4.5h454q43 -2 81 -7t69 -14q80 -37 92 -139v-61l-293 -611l-37 -73q-78 -201 -428 -201h-465q-254 0 -280 123zM195 174q-2 -27 65 -31l481 -2q88 4 119 56l6 8l140 287h-656l-151 -291l-2 -6 q-2 -8 -2 -21zM422 643h665l117 238q-24 61 -102 73h-43h-322q-102 8 -184 -69z" />
<glyph unicode="9" d="M-59 156v61h247q27 -61 101 -70h41h332q104 -4 178 66l133 242h-666h-258l37 67l145 305l39 74q74 201 426 201h465q252 0 281 -123q12 -49 -6 -94l-340 -680q-96 -139 -267 -193q-47 -8 -96 -12t-96 -4h-457q-43 2 -80 7t-69 13q-80 37 -90 140zM387 606h657l150 291 l2 6q4 16 4 21q0 33 -117 43h-430q-86 -12 -121 -66l-4 -8z" />
<glyph unicode=":" horiz-adv-x="380" d="M-113 -4l111 217h252l-109 -217h-254zM100 430l109 217h252l-109 -217h-252z" />
<glyph unicode=";" horiz-adv-x="380" d="M-113 -4l111 217h252l-176 -373h-129l78 156h-136zM100 430l109 217h252l-109 -217h-252z" />
<glyph unicode="&#x3c;" horiz-adv-x="1153" d="M147 557l668 -500l57 150l-542 399l844 402l61 161l-1047 -503z" />
<glyph unicode="=" horiz-adv-x="1052" d="M66 354l79 166h859l-70 -166h-868zM207 709l67 159h859l-74 -159h-852z" />
<glyph unicode="&#x3e;" horiz-adv-x="972" d="M-43 51l1044 500l43 108l-667 504l-55 -149l540 -404l-844 -397z" />
<glyph unicode="?" d="M301 885q98 150 264 200q47 8 95.5 12.5t97.5 4.5h454q43 -2 81 -7t69 -14q80 -37 92 -139v-61l-94 -195v2q-90 -197 -293 -196h-221l-55 -107h-248l116 258h246q182 0 240 119l59 119q-25 61 -102 73h-43h-322q-102 8 -184 -69h-252zM346 -4l111 213h252l-107 -213h-256 z" />
<glyph unicode="@" d="M-49 119q27 -123 280 -123h465q352 0 428 205l330 680v61q-12 102 -92 139q-31 8 -69 13.5t-81 7.5h-454q-49 0 -97.5 -4t-95.5 -13q-168 -51 -213 -131h750q78 -12 102 -73l-342 -684q-35 -53 -121 -56l-477 2q-70 8 -69 31q0 16 4 27l178 342l88 153h168h61h86h41 q25 0 27 -32l-23 -68h-22l-203 2q-57 -2 -84 -45l-92 -184q29 -72 127 -72h172q78 8 123 100l143 303q-6 94 -151 91h-568l-313 -578q-16 -41 -6 -94zM545 428l37 84l209 -2l-43 -80q-18 -27 -48 -37h-120q-35 0 -35 35z" />
<glyph unicode="A" d="M-166 -4l123 217l342 680q98 141 266 192q47 8 95.5 12.5t97.5 4.5h454q43 -2 81 -7t69 -14q80 -37 92 -139v-61l-293 -611l-37 -73l-100 -201h-266l102 201l6 8l140 287h-656l-151 -291l-2 -6q-2 -10 -2 -17v-4l-101 -178h-260zM422 643h665l117 238q-24 61 -102 73h-43 h-322q-9 1 -19 1q-89 0 -165 -70z" />
<glyph unicode="B" d="M-160 -4h391h465q350 0 428 201l66 131q21 52 21 99q0 63 -37 118q162 94 196 172l84 164v61q-12 102 -92 139q-31 8 -69 13.5t-81 7.5h-798l-115 -209l-342 -680zM172 143l25 52l153 297h553q66 0 66 -47q0 -24 -17 -60l-86 -180l-6 -8q-31 -53 -119 -56zM422 643 l131 242l37 69h512q78 -12 102 -73l-59 -119q-57 -119 -164 -119h-559z" />
<glyph unicode="C" d="M-49 119q27 -123 280 -123h793l92 147h-856q-66 4 -65 23q0 25 4 35l354 684q75 70 163 70q10 0 21 -1h365h358l96 148h-196h-148h-454q-49 0 -97.5 -4t-95.5 -13q-170 -53 -266 -192l-342 -680q-10 -25 -10 -55q0 -19 4 -39z" />
<glyph unicode="D" d="M-158 -4h854q352 0 428 205l330 680v61q-12 102 -92 139q-31 8 -69 13.5t-81 7.5h-798l-115 -209l-342 -680zM174 139l25 62l354 684l43 69h506q78 -12 102 -73l-342 -684q-33 -53 -125 -58h-563z" />
<glyph unicode="E" d="M-49 119q27 -123 280 -123h789l96 147h-856h-13q-52 0 -52 30v7q0 6 2 15l2 6l151 291h656l81 151h-665l131 242q75 70 163 70q10 0 21 -1h365h358l90 148h-792q-49 0 -97.5 -4t-95.5 -13q-170 -53 -266 -192l-342 -680q-10 -25 -10 -55q0 -19 4 -39z" />
<glyph unicode="F" d="M-152 -4h252l97 199l2 6l151 291h656l81 151h-665l131 242q75 70 163 70q10 0 21 -1h365h358l90 148h-792q-49 0 -97.5 -4t-95.5 -13q-170 -53 -266 -192l-342 -680z" />
<glyph unicode="G" d="M-49 119q27 -123 280 -123h465q352 0 428 205l166 338l49 104h-249h-265l-82 -156h277l-158 -290q-35 -53 -121 -56l-477 2q-72 4 -69 31q0 16 4 27l354 684q75 70 163 70q11 0 21 -1h723l96 148h-798q-49 0 -97.5 -4t-95.5 -13q-170 -53 -266 -192l-342 -680 q-10 -25 -10 -55q0 -19 4 -39z" />
<glyph unicode="H" d="M-152 -4l109 217l342 680l109 209h251l-106 -217l-131 -242h665l117 238l101 213h258l-109 -213l-293 -611l-37 -73l-104 -201h-260l100 201l6 8l140 287h-656l-151 -291l-2 -6q-2 -8 -2 -21l-95 -178h-252z" />
<glyph unicode="I" horiz-adv-x="374" d="M-152 -4l109 217l342 680l109 209h251l-106 -217l-209 -402l-145 -282l-2 -6q-2 -8 -2 -21l-95 -178h-252z" />
<glyph unicode="J" d="M-49 119q27 -123 280 -123h465q352 0 428 205l330 680l96 221h-739l-74 -148h365h137l-35 -73l-342 -684q-35 -53 -121 -56l-481 2q-63 2 -61 58l180 352h-252l-170 -340q-10 -25 -10 -55q0 -19 4 -39z" />
<glyph unicode="K" d="M-152 -4h261l71 147l15 31v6q0 6 2 15l2 6l151 291l412 -496h258l-461 541l1002 544h-256l-883 -438l131 242l123 217h-262l-115 -209l-342 -680z" />
<glyph unicode="L" d="M-49 119q-4 20 -4 39q0 30 10 55l342 680l104 209h256l-106 -217l-354 -684q-1 -4 -1 -9q0 -45 60 -49h852l-90 -147h-789q-254 0 -280 123z" />
<glyph unicode="M" horiz-adv-x="1488" d="M-158 -4h256l97 178q0 16 4 27l354 684h291l-39 -111l-375 -778h221l432 889h80h113q114 0 114 -60q0 -22 -16 -53l-55 -110l-336 -666h262l432 885q2 18 2 35q0 155 -151 186h-1125l-104 -209l-342 -680z" />
<glyph unicode="N" d="M-158 -4h256l97 178q0 16 4 27l354 684h250h250q113 0 113 -61q0 -22 -15 -52l-55 -110l-336 -666h260l434 885q1 17 1 32q0 159 -150 189h-902l-104 -209l-342 -680z" />
<glyph unicode="O" d="M-49 119q-4 20 -4 39q0 30 10 55l342 680q98 141 266 192q47 8 95.5 12.5t97.5 4.5h454q43 -2 81 -7t69 -14q80 -37 92 -139v-61l-330 -680q-76 -205 -428 -205h-465q-254 0 -280 123zM199 201q-1 -5 -1 -10q0 -38 68 -48l475 -2q86 2 121 56l342 684q-24 61 -102 73h-43 h-322q-10 1 -19 1q-91 0 -165 -70z" />
<glyph unicode="P" d="M-150 -4l107 217l342 680q98 141 266 192q47 8 95.5 12.5t97.5 4.5h454q43 -2 81 -7t69 -14q80 -37 92 -139v-61l-129 -287q-55 -102 -221 -102h-98h-656l-151 -291l-2 -6q-2 -8 -2 -21l-93 -178h-252zM422 643h541q123 0 170 90l71 148q-24 61 -102 73h-43h-322 q-10 1 -19 1q-91 0 -165 -70z" />
<glyph unicode="Q" d="M-49 119q-4 20 -4 39q0 30 10 55l342 680q98 141 266 192q47 8 95.5 12.5t97.5 4.5h454q43 -2 81 -7t69 -14q80 -37 92 -139v-61l-330 -680q-73 -201 -443 -201h-7l2 -119h-219v115h-226q-254 0 -280 123zM195 174q0 -20 63 -31h195v148h223v-148h104q47 0 82 54l342 684 q-24 61 -102 73h-43h-322q-10 1 -19 1q-91 0 -165 -70l-354 -684q-4 -10 -4 -27z" />
<glyph unicode="R" d="M-145 -4h247l93 178v6q0 6 2 15l2 6l151 291h332h113v-496h245v491h99q129 2 186 107l129 287v61q-12 102 -92 139q-31 8 -69 13.5t-81 7.5h-809l-446 -889zM422 643l131 242l37 69h512q78 -12 102 -73l-71 -148q-47 -90 -132 -90h-579z" />
<glyph unicode="S" d="M-143 -4h839q350 0 428 201l37 73l117 242q23 45 23 75q0 56 -84 56h-795l131 242q75 70 163 70q10 0 21 -1h733l84 148h-796q-49 0 -97.5 -4t-95.5 -13q-174 -25 -266 -192l-139 -266q-24 -48 -24 -79q0 -56 77 -56h793l-140 -287l-6 -8q-31 -53 -119 -56l-786 2z" />
<glyph unicode="T" d="M313 -4h240l491 958h58h373l79 148h-1151l-73 -148h465z" />
<glyph unicode="U" d="M-49 123q27 -119 280 -127h465q346 2 428 205l330 680l94 213h-94h-69q-89 0 -93 -4l-88 -209l-342 -684q-35 -53 -121 -56l-491 2q-57 0 -57 21q2 10 2 18q0 10 4 19l354 684l94 180l6 20h-88h-166l-100 -192l-342 -680z" />
<glyph unicode="V" d="M315 -4h232l1016 1098h-258l-730 -795l78 803h-245z" />
<glyph unicode="W" horiz-adv-x="1486" d="M-70 213q-1 -15 -1 -28q0 -160 151 -189h983h3q141 0 232 188l353 697l114 217h-254l-96 -178q0 -12 -6 -27l-354 -684h-289l37 110l375 779h-220l-434 -889h-80h-112q-113 0 -113 61q0 22 14 52l56 110l336 666h-260z" />
<glyph unicode="X" d="M-152 -4l734 553l-174 553h254l126 -397l152 114l365 275h258l-723 -541l180 -557h-260l-127 405l-166 -131l-367 -274h-252z" />
<glyph unicode="Y" d="M180 657q-35 -58 -35 -96q0 -69 118 -69h11h287l-248 -496h224l81 156l173 335h276q141 0 240 168l133 226l108 213h-245l-254 -447h-627l123 242l114 213h-258z" />
<glyph unicode="Z" d="M-33 -4h1051l88 147h-248h-526l1110 799l100 160h-1149l-65 -148h827l-1120 -811z" />
<glyph unicode="[" horiz-adv-x="1081" d="M-115 4h238l94 189l184 360l27 49h131l-43 -86l-256 -512h213l246 512l43 86h55q57 0 64 -49l-273 -549h246l70 148l217 450q-6 143 -285 143h-596l-65 -131l-230 -456z" />
<glyph unicode="\" horiz-adv-x="708" d="M-29 1040h230l524 -1036h-236z" />
<glyph unicode="]" horiz-adv-x="1081" d="M-45 111q0 16 10 47l230 456l65 131h248l-107 -192l-184 -360q2 -45 78 -46h41l39 82l256 512h203l-246 -512l-37 -86l67 2q47 6 76 48l187 360l96 192h229l-65 -143l-217 -450q-68 -150 -338 -150h-398q-233 0 -233 109z" />
<glyph unicode="^" horiz-adv-x="1030" d="M-37 195l764 741h252l-68 -741h-247l65 503l-534 -503h-232z" />
<glyph unicode="_" horiz-adv-x="675" d="M-219 -315l16 98h957l-17 -98h-956z" />
<glyph unicode="`" horiz-adv-x="374" d="M442 1729h205l150 -320h-125z" />
<glyph unicode="a" horiz-adv-x="1081" d="M-45 111q0 -109 233 -109h398q270 0 338 150l217 450q-6 143 -285 143h-604l-68 -143h633q57 0 64 -49l-56 -102h-51h-575q-84 0 -119 -66l-115 -227q-10 -31 -10 -47zM217 193l57 110h344h142l-60 -110q-37 -41 -82 -48l-323 2q-76 0 -78 46z" />
<glyph unicode="b" horiz-adv-x="1081" d="M-45 111q0 16 10 47l230 456l215 426h229l-143 -295h360q279 0 285 -143l-217 -450q-68 -150 -338 -150h-398q-233 0 -233 109zM217 193q2 -45 78 -46l323 -2q47 6 76 48l187 360q-6 49 -64 49h-98h-201q-78 0 -117 -49z" />
<glyph unicode="c" horiz-adv-x="1081" d="M-45 111q0 -109 233 -109h670l72 145h-635q-76 0 -78 46l184 360q39 49 117 49h201h422l65 143h-753h-12q-197 0 -246 -131l-230 -456q-10 -31 -10 -47z" />
<glyph unicode="d" horiz-adv-x="1081" d="M-49 147q6 -143 287 -143h401h12q197 0 246 131l229 457l234 448h-215l-156 -290l-483 -2q-272 0 -336 -150zM215 197l186 360q29 41 74 45h326q76 0 76 -45l-183 -360q-41 -49 -119 -50h-200h-96q-57 0 -64 50z" />
<glyph unicode="e" horiz-adv-x="1081" d="M-45 111q0 -109 233 -109h670l72 145h-635q-76 0 -78 46l55 106h45h572q113 0 166 102l86 201q25 53 25 86q0 57 -74 57h-639h-12q-197 0 -246 -131l-230 -456q-10 -31 -10 -47zM338 451l63 102q39 49 117 49h330q9 1 17 1q46 0 45 -26q0 -18 -23 -49v-2l-41 -75h-352 h-156z" />
<glyph unicode="f" horiz-adv-x="1081" d="M-115 4h238l94 189l55 106h504l70 152h-504l59 102q39 49 117 49h383h240l65 143h-753h-5q-201 0 -268 -159l-215 -428z" />
<glyph unicode="g" horiz-adv-x="1081" d="M-266 -295l73 135h611q109 4 157 74l48 90l-435 -2q-233 0 -233 109q0 16 10 47l230 456q50 131 246 131h12h403q279 0 285 -143l-217 -446l-76 -148l-76 -151q-80 -152 -235 -152h-803zM217 193q2 -45 78 -46l323 -2l72 2l191 406q-6 49 -64 49h-98h-201q-78 0 -117 -49 z" />
<glyph unicode="h" horiz-adv-x="1081" d="M-115 4h238l278 549q39 49 117 49h201h98q57 0 64 -49l-187 -360l-86 -189h246l70 148l217 450q-6 143 -285 143h-360l143 295h-229l-215 -426l-230 -456z" />
<glyph unicode="i" horiz-adv-x="346" d="M-113 4h236l377 741h-240z" />
<glyph unicode="j" horiz-adv-x="583" d="M-442 -297h462q156 0 236 152l76 151l76 148l217 446l65 143h-244l-81 -192l-306 -639q-49 -70 -157 -74h-273z" />
<glyph unicode="k" horiz-adv-x="1081" d="M-113 4l78 154l434 878h260l-157 -291l-101 -192l-57 -102l617 294h245l-760 -393l412 -350l-242 2l-344 295l-55 -106l-88 -189h-242z" />
<glyph unicode="l" horiz-adv-x="352" d="M-115 4l525 1036h229l-518 -1036h-236z" />
<glyph unicode="m" horiz-adv-x="1263" d="M-115 4h238l94 189l184 360l27 49h229l-43 -86l-256 -512h213l246 512l37 86h158q57 0 63 -49l-272 -549h246l69 148l217 450q-6 143 -284 143h-791l-65 -131l-230 -456z" />
<glyph unicode="n" horiz-adv-x="1081" d="M-115 4h238l94 189l184 360l23 49h295h98q57 0 64 -49l-273 -549h246l70 148l217 450q-6 143 -285 143h-596l-65 -131l-230 -456z" />
<glyph unicode="o" horiz-adv-x="1081" d="M-45 111q0 16 10 47l230 456q50 131 246 131h12h403q279 0 285 -143l-217 -450q-68 -150 -338 -150h-398q-233 0 -233 109zM217 193q2 -45 78 -46l323 -2q47 6 76 48l187 360q-6 49 -64 49h-98h-201q-78 0 -117 -49z" />
<glyph unicode="p" horiz-adv-x="1081" d="M-266 -291l231 449l230 456q50 131 246 131h12h403q279 0 285 -143l-217 -450q-68 -150 -338 -150l-480 2l-157 -295h-215zM217 193q2 -45 78 -46l323 -2q47 6 76 48l187 360q-6 49 -64 49h-98h-201q-78 0 -117 -49z" />
<glyph unicode="q" horiz-adv-x="1081" d="M-45 111q0 16 10 47l230 456q50 131 246 131h12h403q279 0 285 -143l-217 -446l-76 -148l-154 -303h-219l148 299l-435 -2q-233 0 -233 109zM217 193q2 -45 78 -46l323 -2l72 2l191 406q-6 49 -64 49h-98h-201q-78 0 -117 -49z" />
<glyph unicode="r" horiz-adv-x="954" d="M-115 4l80 154l221 440q58 145 249 145h18h630l-73 -141h-291h-201q-78 0 -117 -49l-184 -360l-94 -189h-238z" />
<glyph unicode="s" horiz-adv-x="1081" d="M-115 4l701 -2q270 0 338 150l65 149q22 49 22 82q0 68 -93 68h-572l55 102q39 49 117 49h623l63 143h-751h-12q-197 0 -246 -131l-78 -155q-30 -61 -30 -99q0 -57 71 -57h596q-8 -35 -60 -110q-29 -41 -76 -48l-645 2z" />
<glyph unicode="t" horiz-adv-x="915" d="M-35 158v-13q0 -141 219 -141h254l99 139h-242h-10q-64 0 -68 50l184 360l31 49h287h250l67 141h-540l143 297h-229l-215 -426z" />
<glyph unicode="u" horiz-adv-x="1081" d="M-45 111q0 16 10 47l230 456l65 131h248l-107 -192l-184 -360q2 -45 78 -46h323q45 4 76 46l187 360l96 192h229l-65 -143l-217 -450q-68 -150 -338 -150h-398q-233 0 -233 109z" />
<glyph unicode="v" horiz-adv-x="1081" d="M193 4h251l762 741h-229l-535 -503l66 503h-248z" />
<glyph unicode="w" d="M-41 145l217 451l70 147h246l-273 -548q6 -49 64 -50h157l37 86l248 512h211l-254 -512l-47 -86h207q33 8 57 58l178 352l94 188h238l-80 -153l-229 -457q-68 -131 -236 -131h-620q-279 0 -285 143z" />
<glyph unicode="x" horiz-adv-x="1081" d="M-115 4l545 373l-170 368h193l133 -258l387 258h233l-547 -376l195 -365h-246l-121 250l-364 -250h-238z" />
<glyph unicode="y" horiz-adv-x="1081" d="M-266 -295l73 135h611q109 4 157 74l48 90l-435 -2q-233 0 -233 109q0 16 10 47l230 456l65 131h242l-101 -192l-184 -360q2 -45 78 -46l323 -2l72 2l191 406l96 192h225l-61 -143l-217 -446l-76 -148l-76 -151q-80 -152 -235 -152h-803z" />
<glyph unicode="z" horiz-adv-x="1081" d="M-106 4l964 -2l66 145h-660l877 455l65 143h-940l-67 -131h678l-904 -467z" />
<glyph unicode="{" horiz-adv-x="1083" d="M-115 4h238l94 189l184 360q39 49 117 49h201h422l76 143h-764q-205 2 -267 -147l-221 -440z" />
<glyph unicode="|" horiz-adv-x="352" d="M-201 -172l672 1341h229l-665 -1341h-236z" />
<glyph unicode="}" horiz-adv-x="1081" d="M-35 158q-10 -154 219 -154h254l99 139h-242q-74 -4 -78 50l184 360l31 49h287h422l69 143h-714l143 295h-229l-215 -426z" />
<glyph unicode="~" horiz-adv-x="868" d="M111 539q23 53 45 102t47 100q80 -8 158.5 1.5t157.5 18.5t158 12t159 -17q-27 -49 -51.5 -99.5t-51.5 -103.5q-78 8 -154.5 -1t-155.5 -19.5t-157 -13.5t-155 20z" />
<glyph unicode="&#xa1;" horiz-adv-x="374" d="M-113 -4l299 606l60 111h256l-252 -508l-109 -209h-254zM322 885l108 217h252l-109 -217h-251z" />
<glyph unicode="&#xa2;" horiz-adv-x="1081" d="M76 315q0 -109 233 -108h133l-106 -211h252l102 211h287l72 145l-287 -2l69 133l168 324h263l65 143h-254l74 152h-252l-80 -152h-242q-207 4 -258 -131l-229 -457q-10 -31 -10 -47zM338 397l184 361q39 49 117 49h104l-229 -457l-98 2q-76 0 -78 45z" />
<glyph unicode="&#xa3;" horiz-adv-x="1404" d="M51 655h254l-108 -217l-50 -96l-63 -129q-10 -23 -10 -55v-21q0 -8 4 -18q27 -123 280 -123h791l92 147h-854q-63 0 -68 23q0 18 7 35l73 141l23 51l139 262h250l80 95h-283l72 135q70 70 162 69l76 144q-20 2 -39 2h-35q-47 0 -83 -4t-71 -11q-166 -51 -266 -192 l-72 -143h-221z" />
<glyph unicode="&#xa5;" d="M51 106l80 95h285l51 102h-283l80 94h250l47 95h-297q-119 0 -119 71q0 37 35 94l221 449h254l-110 -217l-123 -242h627l254 447h245l-108 -213l-133 -226q-102 -172 -240 -172h-270l-47 -86h274l-78 -94h-246l-55 -102h246l-76 -95h-221l-57 -110h-224l56 110h-318z" />
<glyph unicode="&#xa6;" horiz-adv-x="352" d="M-201 -172l672 1341h229l-665 -1341h-236z" />
<glyph unicode="&#xa7;" d="M-143 -4l98 147l786 -2q88 4 119 56l6 8l140 287h-86l-91 -177q-29 -41 -73 -47h-324q-74 2 -78 47l88 177h-229q-119 0 -53 135l139 266q92 168 266 192q47 8 95.5 12.5t97.5 4.5h796l-84 -148h-733q-100 8 -184 -69l-131 -242h96l72 141q39 50 117 50h299q55 0 61 -50 l-70 -141h220q129 0 61 -131l-117 -242l-37 -73q-78 -201 -428 -201h-839zM565 440h183l110 217h-184z" />
<glyph unicode="&#xa8;" horiz-adv-x="374" d="M305 1405h232l106 217h2h-237zM713 1405h233l103 217h4h-238z" />
<glyph unicode="&#xa9;" d="M-49 119q27 -123 280 -123h465q352 0 428 205l330 680v61q-12 102 -92 139q-31 8 -69 13.5t-81 7.5h-454q-49 0 -97.5 -4t-95.5 -13q-170 -53 -266 -192l-342 -680q-16 -41 -6 -94zM129 213l358 664q145 86 256 77h349h45q82 -12 118 -73l-350 -680q-63 -57 -157 -60 l-515 2q-80 10 -104 70zM293 334q0 -90 225 -90l322 2l59 116h-278q-74 0 -74 37l178 289q41 41 113 41h192l74 117h-330q-201 0 -250 -109l-221 -366q-10 -25 -10 -37z" />
<glyph unicode="&#xaa;" horiz-adv-x="882" d="M162 674q0 -74 149 -74h260q176 0 217 102l146 304q-6 96 -189 96h-262h-131l-43 -96h414q33 0 39 -33l-35 -70h-33h-377q-55 0 -75 -43l-74 -153q-6 -16 -6 -33zM330 729l39 76l120 2l195 -2l-41 -76q-23 -29 -49 -31h-213q-49 0 -51 31z" />
<glyph unicode="&#xab;" horiz-adv-x="843" d="M35 475l16 70l418 321l-27 -104l-336 -256l218 -260l-23 -96zM410 479l16 70l418 321l-25 -104l-338 -256l219 -260l-24 -96z" />
<glyph unicode="&#xac;" horiz-adv-x="825" d="M27 401h641l-105 -276h125l103 276l83 152h-759z" />
<glyph unicode="&#xad;" horiz-adv-x="380" d="M100 430l109 217h252l-109 -217h-252z" />
<glyph unicode="&#xae;" d="M-49 119q27 -123 280 -123h465q352 0 428 205l330 680v61q-12 102 -92 139q-31 8 -69 13.5t-81 7.5h-454q-49 0 -97.5 -4t-95.5 -13q-170 -53 -266 -192l-342 -680q-16 -41 -6 -94zM129 213l358 664q145 86 256 77h349h45q82 -12 118 -73l-350 -680q-63 -57 -157 -60 l-515 2q-80 10 -104 70zM309 231l164 2l88 154l178 289q41 41 113 41h192l74 117h-330q-201 0 -249 -109q-229 -389 -230 -403v-91z" />
<glyph unicode="&#xaf;" horiz-adv-x="675" d="M-66 1374h957l18 99h-958z" />
<glyph unicode="&#xb0;" horiz-adv-x="782" d="M449 1415h237l102 217h-237z" />
<glyph unicode="&#xb1;" horiz-adv-x="1288" d="M76 729h577l-118 -313h124l119 313h578l30 86h-575l119 318h-123l-121 -318h-577zM121 98h760l80 95h-760z" />
<glyph unicode="&#xb2;" horiz-adv-x="868" d="M219 674q-6 20 4 43l68 135q45 51 141 51h301l53 103q-14 31 -47 32h-18h-148l23 64h195q45 0 67 -8q37 -14 43 -60v-28l-90 -168h-115h-297l-67 -129l-2 -2v-9q-4 -10 30 -12l215 2q39 -4 56 19l2 6h121q-39 -94 -199 -95h-209q-115 0 -127 56z" />
<glyph unicode="&#xb3;" horiz-adv-x="919" d="M195 700v29h127q14 -29 55 -31h18h168q55 0 96 31l74 98h-350l41 68h344l80 123l2 2v8q0 16 -35 19h-252q-45 -2 -63 -27h-138q39 82 222 82h245q131 0 148 -49q4 -16 -2 -41l-178 -289q-57 -61 -140 -82q-25 -4 -50 -6t-50 -2h-240q-23 2 -41 4t-34 4q-41 18 -47 59z " />
<glyph unicode="&#xb4;" horiz-adv-x="374" d="M481 1409l150 320h207l-230 -320h-127z" />
<glyph unicode="&#xb5;" horiz-adv-x="1081" d="M-252 -270l137 262l310 622l65 131h248l-107 -192l-184 -360q2 -45 78 -46l323 -2q47 6 76 48l187 360l96 192h229l-65 -143l-217 -450q-68 -150 -338 -150l-459 6l-156 -278h-223z" />
<glyph unicode="&#xb6;" d="M246 713q-10 -164 104 -221h154l-123 -295l-94 -197h252l104 201l281 626h217l-275 -622l-6 -8l-92 -197h279l387 868q20 45 20 74q-12 102 -92 139q-31 8 -69 13.5t-81 7.5h-454q-49 0 -97.5 -4t-95.5 -13q-170 -53 -266 -192z" />
<glyph unicode="&#xb7;" horiz-adv-x="380" d="M100 430l109 217h252l-109 -217h-252z" />
<glyph unicode="&#xb8;" horiz-adv-x="380" d="M-250 -348l107 217h127l71 156h129l-71 -156l-111 -217h-252z" />
<glyph unicode="&#xb9;" horiz-adv-x="509" d="M145 633l60 92l174 279h-100l32 49l131 49h133l-57 -90l-104 -172l-125 -207h-144z" />
<glyph unicode="&#xba;" horiz-adv-x="888" d="M190 692q-4 29 9 49l100 265q37 94 158 94h381q55 0 77 -25q20 -14 21 -43q0 -25 -8 -43l-99 -260q-39 -100 -161 -100l-187 2l-192 -2q-92 0 -99 63zM375 754q-6 -16 28 -17h213q45 0 56 29l82 213v6v-6q-6 14 -52 14h-192q-45 0 -57 -28z" />
<glyph unicode="&#xbb;" horiz-adv-x="835" d="M-16 150l24 104l338 256l-219 260l23 96l268 -325l-17 -70zM373 154l26 104l336 256l-217 260l23 96l266 -325l-16 -70z" />
<glyph unicode="&#xbc;" horiz-adv-x="1345" d="M-160 2l1104 840h182l-1099 -840h-187zM8 395l60 92l174 279h-101l33 49l129 49h135l-57 -90l-105 -172l-124 -207h-144zM653 221l105 172l53 82h123l-49 -86l-66 -102h332l59 102l47 92h35h99l-56 -92l-147 -264l-19 -33l-49 -88h-133l51 88l2 4l70 125h-328h-129z" />
<glyph unicode="&#xbd;" horiz-adv-x="1290" d="M-160 2l1104 840h182l-1099 -840h-187zM8 395l60 92l174 279h-101l33 49l129 49h135l-57 -90l-105 -172l-124 -207h-144zM580 59q-6 20 4 43l69 136q43 51 140 51h301l55 102q-14 29 -49 33h-19h-147l24 63h193q45 0 68 -8q37 -14 43 -59v-29l-91 -168h-112h-297 l-70 -129l-2 -2v-8q0 -10 31 -12l217 2q41 -4 53 18l4 6h119q-39 -94 -199 -94h-208q-115 0 -127 55z" />
<glyph unicode="&#xbe;" horiz-adv-x="1605" d="M8 467v29h127q14 -29 55 -31h19h168q55 0 96 31l74 98h-350l41 68h344l80 122l2 2v9q0 16 -35 18h-252q-45 -2 -64 -27h-137q39 82 221 82h246q131 0 148 -49q4 -16 -3 -41l-180 -289q-55 -61 -137 -81q-25 -4 -50.5 -6.5t-49.5 -2.5h-240q-23 2 -41 4.5t-35 4.5 q-41 18 -47 59zM170 2l1104 840h182l-1100 -840h-186zM911 221l105 172l53 82h123l-49 -86l-66 -102h332l59 102l48 92h34h99l-56 -92l-147 -264l-19 -33l-49 -88h-133l51 88l2 4l72 125h-330h-129z" />
<glyph unicode="&#xbf;" d="M301 156v61l94 195v-2q88 197 291 196h223l54 107h249l-116 -258h-246q-184 0 -242 -119l-57 -119q25 -61 102 -74h43h322q102 -8 184 70h252q-98 -150 -264 -201q-47 -8 -95 -12t-98 -4h-454q-43 2 -81 7t-69 13q-80 37 -92 140zM1047 889l106 213h254l-109 -213h-251z " />
<glyph unicode="&#xc0;" d="M-166 -4h260l101 178v6q0 6 2 15l2 6l151 291h656l-140 -287l-6 -8l-102 -201h266l100 201l37 73l293 611v61q-12 102 -92 139q-31 8 -69 13.5t-81 7.5h-454q-49 0 -97.5 -4t-95.5 -13q-170 -53 -266 -192l-342 -680zM422 643l131 242q84 78 184 69h365q78 -12 102 -73 l-117 -238h-665zM791 1729l229 -320h127l-150 320h-206z" />
<glyph unicode="&#xc1;" d="M-166 -4h260l101 178v6q0 6 2 15l2 6l151 291h656l-140 -287l-6 -8l-102 -201h266l100 201l37 73l293 611v61q-12 102 -92 139q-31 8 -69 13.5t-81 7.5h-454q-49 0 -97.5 -4t-95.5 -13q-170 -53 -266 -192l-342 -680zM422 643l131 242q84 78 184 69h365q78 -12 102 -73 l-117 -238h-665zM911 1409h127l230 320h-207z" />
<glyph unicode="&#xc2;" d="M-150 0l244 -4l101 178v6q0 6 2 15l2 6l151 291h656l-140 -287l-6 -8l-102 -201h266l100 201l37 73l293 611v61q-12 102 -92 139q-31 8 -69 13.5t-81 7.5h-454q-49 0 -97.5 -4t-95.5 -13q-170 -53 -266 -192l-342 -680zM422 643l131 242q84 78 184 69h365q78 -12 102 -73 l-117 -238h-665zM762 1407l115 2l219 213l-23 -215h111l30 338h-112z" />
<glyph unicode="&#xc3;" d="M-150 0h244l101 174v6q0 6 2 15l153 297h656l-140 -287l-6 -8l-102 -201h266l137 274l301 602l-8 70q-12 102 -92 139q-31 8 -69 13.5t-81 7.5h-454q-49 0 -97.5 -4t-95.5 -13q-170 -53 -266 -192zM422 643l131 242q70 70 162 69h387q78 -12 102 -73l-117 -238h-665z M633 1405h620l103 217h-623z" />
<glyph unicode="&#xc4;" d="M-150 0l244 -4l101 178v6q0 6 2 15l2 6l151 291h656l-140 -287l-6 -8l-102 -201h266l100 201l37 73l293 611v61q-12 102 -92 139q-31 8 -69 13.5t-81 7.5h-454q-49 0 -97.5 -4t-95.5 -13q-170 -53 -266 -192l-342 -680zM422 643l131 242q84 78 184 69h365q78 -12 102 -73 l-117 -238h-665zM649 1405h234l104 217h2h-237zM1051 1405h233l105 217h2h-238z" />
<glyph unicode="&#xc5;" d="M-150 0l244 -4l101 178v6q0 6 2 15l2 6l151 291h656l-140 -287l-6 -8l-102 -201h266l100 201l37 73l293 611v61q-12 102 -92 139q-31 8 -69 13.5t-81 7.5h-454q-49 0 -97.5 -4t-95.5 -13q-170 -53 -266 -192l-342 -680zM422 643l131 242q84 78 184 69h365q78 -12 102 -73 l-117 -238h-665zM872 1405h238l102 217h-237z" />
<glyph unicode="&#xc6;" horiz-adv-x="2234" d="M-166 -4h260l101 178v6q0 6 2 15l2 6l151 291h656l-140 -287l-6 -8l-102 -201h1190l96 147h-856q-68 -4 -68 31l4 21l2 6l152 291h655l82 151h-665l131 242q84 77 184 69h721l92 148h-1720q-49 0 -97.5 -4t-95.5 -13q-170 -53 -266 -192l-342 -680zM422 643l131 242 q84 78 184 69h365q78 -12 102 -73l-117 -238h-665z" />
<glyph unicode="&#xc7;" d="M-49 119q27 -123 280 -123l330 4l-61 -131h-127l-107 -217h252l176 348l330 -4l92 147h-856q-66 4 -65 23q0 25 4 35l354 684q84 78 184 69h365h358l96 148h-798q-49 0 -97.5 -4t-95.5 -13q-170 -53 -266 -192l-342 -680q-16 -41 -6 -94z" />
<glyph unicode="&#xc8;" d="M-49 119q27 -123 280 -123h789l96 147h-856q-66 -4 -65 31v6q0 6 2 15l2 6l151 291h656l81 151h-665l131 242q84 78 184 69h365h358l90 148h-792q-49 0 -97.5 -4t-95.5 -13q-170 -53 -266 -192l-342 -680q-16 -41 -6 -94zM791 1729l229 -320h127l-150 320h-206z" />
<glyph unicode="&#xc9;" d="M-53 158q0 -10 1 -19.5t3 -19.5q27 -123 280 -123h789l96 147h-856q-66 0 -65 31v6q0 6 2 15l153 297h656l81 151h-665l131 242q70 70 162 69h387h358l90 148h-792q-49 0 -97.5 -4t-95.5 -13q-170 -53 -266 -192l-342 -680q-10 -23 -10 -55zM911 1409h127l230 320h-207z " />
<glyph unicode="&#xca;" d="M-49 119q27 -123 280 -123h789l96 147h-856q-66 -4 -65 31v6q0 6 2 15l2 6l151 291h656l81 151h-665l131 242q84 78 184 69h365h358l90 148h-792q-49 0 -97.5 -4t-95.5 -13q-170 -53 -266 -192l-342 -680q-16 -41 -6 -94zM762 1407l115 2l219 213l-23 -215h111l30 338 h-112z" />
<glyph unicode="&#xcb;" d="M-49 119q27 -123 280 -123h789l96 147h-856q-66 -4 -65 31v6q0 6 2 15l2 6l151 291h656l81 151h-665l131 242q84 78 184 69h365h358l90 148h-792q-49 0 -97.5 -4t-95.5 -13q-170 -53 -266 -192l-342 -680q-16 -41 -6 -94zM649 1405h234l104 217h2h-237zM1057 1405h235 l101 217h4h-238z" />
<glyph unicode="&#xcc;" horiz-adv-x="374" d="M-152 -4l109 217l342 680l109 209h251l-106 -217l-209 -402l-145 -282l-2 -6q-2 -8 -2 -21l-95 -178h-252zM442 1729h205l150 -320h-125z" />
<glyph unicode="&#xcd;" horiz-adv-x="374" d="M-152 -4l109 217l342 680l109 209h251l-315 -619l-145 -282l-2 -6q-2 -8 -2 -21l-95 -178h-252zM481 1409l150 320h207l-230 -320h-127z" />
<glyph unicode="&#xce;" horiz-adv-x="374" d="M-152 -4l109 217l342 680l109 209h251l-106 -217l-209 -402l-145 -282l-2 -6q-2 -8 -2 -21l-95 -178h-252zM414 1407l340 338h110l-30 -338h-109l20 215l-217 -213z" />
<glyph unicode="&#xcf;" horiz-adv-x="374" d="M-152 -4h252l95 178v6q0 6 2 15l2 6l145 282l209 402l106 217h-251l-109 -209l-342 -680zM305 1405h234l104 217h2h-237zM713 1405h233l103 217h4h-238z" />
<glyph unicode="&#xd0;" d="M246 713q-10 -164 104 -221h656l-140 -287l-6 -8l-98 -197h282l80 197l37 73l293 611v61q-12 102 -92 139q-31 8 -69 13.5t-81 7.5h-454q-49 0 -97.5 -4t-95.5 -13q-170 -53 -266 -192zM471 754l82 131q84 78 184 69h322h43q78 -12 102 -73l-117 -238h-559 q-106 0 -57 111z" />
<glyph unicode="&#xd1;" d="M-158 -4h256l97 178q0 16 4 27l354 684h250h250q154 0 98 -113l-55 -110l-336 -666h260l434 885q16 188 -149 221h-902l-104 -209l-342 -680zM633 1405h620l103 217h-623z" />
<glyph unicode="&#xd2;" d="M-49 119q-10 53 6 94l342 680q98 141 266 192q47 8 95.5 12.5t97.5 4.5h454q43 -2 81 -7t69 -14q80 -37 92 -139v-61l-330 -680q-76 -205 -428 -205h-465q-254 0 -280 123zM199 201q-10 -47 67 -58l475 -2q86 2 121 56l342 684q-24 61 -102 73h-43h-322q-102 8 -184 -69z M791 1729h206l150 -320h-127z" />
<glyph unicode="&#xd3;" d="M-49 119q-10 53 6 94l342 680q98 141 266 192q47 8 95.5 12.5t97.5 4.5h454q43 -2 81 -7t69 -14q80 -37 92 -139v-61l-330 -680q-76 -205 -428 -205h-465q-254 0 -280 123zM199 201q-10 -47 67 -58l475 -2q86 2 121 56l342 684q-24 61 -102 73h-43h-322q-102 8 -184 -69z M911 1409l150 320h207l-230 -320h-127z" />
<glyph unicode="&#xd4;" d="M-49 119q-10 53 6 94l342 680q98 141 266 192q47 8 95.5 12.5t97.5 4.5h454q43 -2 81 -7t69 -14q80 -37 92 -139v-61l-330 -680q-76 -205 -428 -205h-465q-254 0 -280 123zM199 201q-10 -47 67 -58l475 -2q86 2 121 56l342 684q-24 61 -102 73h-43h-322q-102 8 -184 -69z M762 1407l340 338h112l-30 -338h-111l23 215l-219 -213z" />
<glyph unicode="&#xd5;" d="M-53 158q0 33 10 55l342 680q98 141 266 192q47 8 95.5 12.5t97.5 4.5h454q43 -2 81 -7t69 -14q80 -37 92 -139v-61l-330 -680q-76 -205 -428 -205h-465q-254 0 -280 123q-2 10 -3 19t-1 20zM199 190q0 -37 67 -49h475q86 2 121 56l342 684q-24 61 -102 73h-365h-22 q-92 0 -162 -69l-354 -684v-11zM633 1405l100 217h623l-103 -217h-620z" />
<glyph unicode="&#xd6;" d="M-49 119q27 -123 280 -123h465q352 0 428 205l330 680v61q-12 102 -92 139q-31 8 -69 13.5t-81 7.5h-454q-49 0 -97.5 -4t-95.5 -13q-170 -53 -266 -192l-342 -680q-16 -41 -6 -94zM199 201l354 684q84 78 184 69h322h43q78 -12 102 -73l-342 -684q-35 -53 -121 -56 l-475 2q-78 8 -67 58zM649 1405h234l104 217h2h-237zM1051 1405h237l101 217h2h-238z" />
<glyph unicode="&#xd7;" d="M-158 -4h256l97 178q0 16 4 27l354 684h186l-53 -111l-377 -778h221l433 889h90q154 0 98 -113l-55 -110l-336 -666h260l434 885q16 188 -149 221h-902l-104 -209l-342 -680z" />
<glyph unicode="&#xd8;" d="M-49 119q-10 53 6 94l342 680q98 141 266 192q47 8 95.5 12.5t97.5 4.5h444l178 -31q61 -41 74 -129v-61l-330 -680q-76 -205 -428 -205h-465h-30l-170 33q-63 31 -80 90zM199 182l843 772h-305q-102 8 -184 -69l-354 -684v-11v-8zM362 143l379 -2q86 2 121 56l342 684 q-4 4 -5 9t-5 9z" />
<glyph unicode="&#xd9;" d="M-49 123q27 -119 280 -127h465q346 2 428 205l330 680l94 213h-94q-156 2 -162 -4l-88 -209l-342 -684q-35 -53 -121 -56l-491 2q-57 0 -57 21q2 10 2 18q0 10 4 19l354 684l100 200h-88h-166l-100 -192l-342 -680zM791 1729l229 -320h127l-150 320h-206z" />
<glyph unicode="&#xda;" d="M-49 123q27 -119 280 -127h465q346 2 428 205l330 680l94 213h-94q-156 2 -162 -4l-88 -209l-342 -684q-35 -53 -121 -56l-491 2q-57 0 -57 21q2 10 2 18q0 10 4 19l354 684l94 180l6 20h-88h-166l-100 -192l-342 -680zM911 1409h127l230 320h-207z" />
<glyph unicode="&#xdb;" d="M-49 123q27 -119 280 -127h465q346 2 428 205l330 680l94 213h-94q-156 2 -162 -4l-88 -209l-342 -684q-35 -53 -121 -56l-491 2q-57 0 -57 21q2 10 2 18q0 10 4 19l354 684l94 180l6 20h-88h-166l-100 -192l-342 -680zM762 1407l115 2l219 213l-23 -215h111l30 338h-112 z" />
<glyph unicode="&#xdc;" d="M-49 123q27 -119 280 -127h465q346 2 428 205l330 680l94 213h-94q-156 2 -162 -4l-88 -209l-342 -684q-35 -53 -121 -56l-491 2q-57 0 -57 21q2 10 2 18q0 10 4 19l354 684l94 180l6 20h-88h-166l-100 -192l-342 -680zM649 1405h234l104 217h2h-237zM1063 1405h233 l103 217h4h-240z" />
<glyph unicode="&#xdd;" d="M180 657q-102 -170 94 -165h287l-248 -496h224l81 156l173 335h276q141 0 240 168l133 226l108 213h-245l-254 -447h-627l123 242l114 213h-258zM911 1409h127l230 320h-207z" />
<glyph unicode="&#xde;" d="M-143 0l100 213l422 893h252l-109 -229l-12 -25l571 -4q43 -2 80 -7t70 -14q80 -37 90 -139v-61l-129 -287q-53 -102 -219 -102h-756l-20 -43q-2 -8 -2 -15v-6l-89 -174h-249zM289 389h542q123 0 170 90l72 148q-28 61 -104 73h-365l-166 2z" />
<glyph unicode="&#xdf;" d="M-246 -238h234l565 1123l37 69h512q78 -12 102 -73l-59 -119q-57 -119 -164 -119h-236l-69 -151h227q100 0 49 -107l-86 -180l-6 -8q-31 -53 -119 -56l-204 2l-78 -143h241q346 -4 424 197l66 131q49 121 -16 217q162 94 196 172l84 164v61q-12 102 -92 139 q-31 8 -69 13.5t-81 7.5h-641q-160 0 -272 -209z" />
<glyph unicode="&#xe0;" horiz-adv-x="1081" d="M-45 111q0 -109 233 -109h398q270 0 338 150l217 450q-6 143 -285 143h-604l-68 -143h633q57 0 64 -49l-56 -102h-51h-575q-84 0 -119 -66l-115 -227q-10 -31 -10 -47zM217 193l57 110h486l-60 -110q-37 -41 -82 -48l-323 2q-76 0 -78 46zM551 1368l229 -319h125 l-147 319h-207z" />
<glyph unicode="&#xe1;" horiz-adv-x="1081" d="M-45 111q0 -109 233 -109h398q270 0 338 150l217 450q-6 143 -285 143h-604l-68 -143h633q57 0 64 -49l-56 -102h-51h-575q-84 0 -119 -66l-115 -227q-10 -31 -10 -47zM217 193l57 110h486l-60 -110q-37 -41 -82 -48l-323 2q-76 0 -78 46zM643 1049h125l229 319h-206z " />
<glyph unicode="&#xe2;" horiz-adv-x="1081" d="M-45 111q0 -109 233 -109h398q270 0 338 150l217 450q-6 143 -285 143h-604l-68 -143h633q57 0 64 -49l-56 -102h-51h-575q-84 0 -119 -66l-115 -227q-10 -31 -10 -47zM217 193l57 110h486l-60 -110q-37 -41 -82 -48l-323 2q-76 0 -78 46zM539 1030l114 2l219 213 l-22 -215h111l30 338h-112z" />
<glyph unicode="&#xe3;" horiz-adv-x="1081" d="M-45 111q0 -109 233 -109h398q270 0 338 150l217 450q-6 143 -285 143h-604l-68 -143h633q57 0 64 -49l-56 -102h-51h-575q-84 0 -119 -66l-115 -227q-10 -31 -10 -47zM217 193l57 110h486l-60 -110q-37 -41 -82 -48l-323 2q-76 0 -78 46zM420 1044h620l105 218h-623z " />
<glyph unicode="&#xe4;" horiz-adv-x="1081" d="M-45 111q0 -109 233 -109h398q270 0 338 150l217 450q-6 143 -285 143h-604l-68 -143h633q57 0 64 -49l-56 -102h-51h-575q-84 0 -119 -66l-115 -227q-10 -31 -10 -47zM217 193l57 110h486l-60 -110q-37 -41 -82 -48l-323 2q-76 0 -78 46zM420 1044h237l103 218h-238z M805 1044h235l105 218h-240z" />
<glyph unicode="&#xe5;" horiz-adv-x="1081" d="M-45 111q0 -109 233 -109h398q270 0 338 150l217 450q-6 143 -285 143h-604l-68 -143h633q57 0 64 -49l-56 -102h-51h-575q-84 0 -119 -66l-115 -227q-10 -31 -10 -47zM217 193l57 110h486l-60 -110q-37 -41 -82 -48l-323 2q-76 0 -78 46zM604 1044h236l104 218h-239z " />
<glyph unicode="&#xe6;" horiz-adv-x="1824" d="M-45 111q0 16 10 47l115 227q35 66 119 66h626l56 102q-6 49 -64 49h-633l68 143h604q104 0 178 -22q53 20 144 20h639q72 0 71 -57q0 -31 -22 -86l-86 -201q-55 -102 -166 -102h-617l-55 -107q2 -45 78 -45h633l-72 -143h-1393q-233 0 -233 109zM217 193q4 -43 78 -48 h323q43 6 82 48l60 110h-486zM1067 449h504l39 77q25 31 24 49q0 25 -43 25h-348q-76 0 -119 -49l-43 -70z" />
<glyph unicode="&#xe7;" horiz-adv-x="1081" d="M-45 111q0 -109 233 -109l299 2l-63 -135h-125l-106 -217h251l109 217l63 135l242 -2l72 145h-635q-76 0 -78 46l184 360q39 49 117 49h201h422l65 143h-753q-207 4 -258 -131l-230 -456q-10 -31 -10 -47z" />
<glyph unicode="&#xe8;" horiz-adv-x="1081" d="M-45 111q0 -109 233 -109h670l72 145h-635q-76 0 -78 46l55 106h45h97h475q113 0 166 102l86 201q68 143 -49 143h-639q-207 4 -258 -131l-230 -456q-10 -31 -10 -47zM338 451l63 102q39 49 117 49h330q100 8 39 -74v-2l-41 -75h-352h-156zM551 1368l229 -319h125 l-147 319h-207z" />
<glyph unicode="&#xe9;" horiz-adv-x="1081" d="M-45 111q0 -109 233 -109h670l72 145h-635q-76 0 -78 46l55 106h45h97h475q113 0 166 102l86 201q68 143 -49 143h-639q-207 4 -258 -131l-230 -456q-10 -31 -10 -47zM338 451l63 102q39 49 117 49h330q100 8 39 -74v-2l-41 -75h-352h-156zM643 1049h125l229 319h-206z " />
<glyph unicode="&#xea;" horiz-adv-x="1081" d="M-45 111q0 -109 233 -109h670l72 145h-635q-76 0 -78 46l55 106h45h97h475q113 0 166 102l86 201q68 143 -49 143h-639q-207 4 -258 -131l-230 -456q-10 -31 -10 -47zM338 451l63 102q39 49 117 49h330q100 8 39 -74v-2l-41 -75h-352h-156zM539 1030l114 2l219 213 l-22 -215h111l30 338h-112z" />
<glyph unicode="&#xeb;" horiz-adv-x="1081" d="M-45 111q0 -109 233 -109h670l72 145h-635q-76 0 -78 46l55 106h45h97h475q113 0 166 102l86 201q68 143 -49 143h-639q-207 4 -258 -131l-230 -456q-10 -31 -10 -47zM338 451l63 102q39 49 117 49h330q100 8 39 -74v-2l-41 -75h-352h-156zM420 1044h237l103 218h-238z M805 1044h235l105 218h-240z" />
<glyph unicode="&#xec;" horiz-adv-x="346" d="M-113 4l373 741h240l-377 -741h-236zM287 1368h207l149 -319h-127z" />
<glyph unicode="&#xed;" horiz-adv-x="346" d="M-113 4l373 741h240l-377 -741h-236zM356 1049l148 319h207l-230 -319h-125z" />
<glyph unicode="&#xee;" horiz-adv-x="346" d="M-113 4l373 741h240l-377 -741h-236zM252 1030l340 338h113l-31 -338h-111l23 215l-219 -213z" />
<glyph unicode="&#xef;" horiz-adv-x="346" d="M-113 4l373 741h240l-377 -741h-236zM168 1044l102 218h238l-105 -218h-235zM569 1044l103 218h237l-104 -218h-236z" />
<glyph unicode="&#xf0;" d="M-74 135q-78 -139 66 -139h895q125 0 180 102l57 103l330 680q0 31 94 213h-245l-459 -951h-230l54 107l428 852h-230l-428 -852l-45 -107h-215q8 23 12.5 36.5t8.5 21.5l346 688l114 213h-258l-444 -889z" />
<glyph unicode="&#xf1;" horiz-adv-x="1081" d="M-115 4h238l94 189l184 360l23 49h295h98q57 0 64 -49l-273 -549h246l70 148l217 450q-6 143 -285 143h-596l-65 -131l-230 -456zM420 1044h620l105 218h-623z" />
<glyph unicode="&#xf2;" horiz-adv-x="1081" d="M-45 111q0 -109 233 -109h398q270 0 338 150l217 450q-6 143 -285 143h-403q-207 4 -258 -131l-230 -456q-10 -31 -10 -47zM217 193l184 360q39 49 117 49h201h98q57 0 64 -49l-187 -360q-29 -41 -76 -48l-323 2q-76 0 -78 46zM551 1368l229 -319h125l-147 319h-207z" />
<glyph unicode="&#xf3;" horiz-adv-x="1081" d="M-45 111q0 16 10 47l230 456q51 135 258 131h403q279 0 285 -143l-217 -450q-68 -150 -338 -150h-398q-233 0 -233 109zM217 193q2 -45 78 -46l323 -2q47 6 76 48l187 360q-6 49 -64 49h-98h-201q-78 0 -117 -49zM643 1049l148 319h206l-229 -319h-125z" />
<glyph unicode="&#xf4;" horiz-adv-x="1081" d="M-45 111q0 -109 233 -109h398q270 0 338 150l217 450q-6 143 -285 143h-403q-207 4 -258 -131l-230 -456q-10 -31 -10 -47zM217 193l184 360q39 49 117 49h201h98q57 0 64 -49l-187 -360q-29 -41 -76 -48l-323 2q-76 0 -78 46zM539 1030l114 2l219 213l-22 -215h111 l30 338h-112z" />
<glyph unicode="&#xf5;" horiz-adv-x="1081" d="M-45 111q0 -109 233 -109h398q270 0 338 150l217 450q-6 143 -285 143h-403q-207 4 -258 -131l-230 -456q-10 -31 -10 -47zM217 193l184 360q39 49 117 49h201h98q57 0 64 -49l-187 -360q-29 -41 -76 -48l-323 2q-76 0 -78 46zM420 1044h620l105 218h-623z" />
<glyph unicode="&#xf6;" horiz-adv-x="1081" d="M-45 111q0 -109 233 -109h398q270 0 338 150l217 450q-6 143 -285 143h-403q-207 4 -258 -131l-230 -456q-10 -31 -10 -47zM217 193l184 360q39 49 117 49h201h98q57 0 64 -49l-187 -360q-29 -41 -76 -48l-323 2q-76 0 -78 46zM420 1044h237l103 218h-238zM805 1044h235 l105 218h-240z" />
<glyph unicode="&#xf7;" horiz-adv-x="825" d="M27 401h768l79 152h-759zM186 74h230l100 213h2h-229zM381 696h223l101 213h4h-232z" />
<glyph unicode="&#xf8;" horiz-adv-x="1081" d="M-45 111q0 16 10 47l230 456q51 135 258 131h403q279 0 285 -143l-217 -450q-68 -150 -338 -150h-398q-233 0 -233 109zM217 193q2 -45 78 -46l323 -2q47 6 76 48q52 75 60 110h-480zM346 451h479l56 102q-6 49 -64 49h-98h-201q-78 0 -117 -49z" />
<glyph unicode="&#xf9;" horiz-adv-x="1081" d="M-45 111q0 16 10 47l230 456l65 131h248l-107 -192l-184 -360q2 -45 78 -46l323 -2q47 6 76 48l187 360l96 192h229l-65 -143l-217 -450q-68 -150 -338 -150h-398q-233 0 -233 109zM551 1368h207l147 -319h-125z" />
<glyph unicode="&#xfa;" horiz-adv-x="1081" d="M-45 111q0 16 10 47l230 456l65 131h248l-107 -192l-184 -360q2 -45 78 -46h321q47 4 78 46l187 360l96 192h229l-65 -143l-217 -450q-68 -150 -338 -150h-398q-233 0 -233 109zM643 1049l148 319h206l-229 -319h-125z" />
<glyph unicode="&#xfb;" horiz-adv-x="1081" d="M-45 111q0 16 10 47l230 456l65 131h248l-107 -192l-184 -360q2 -45 78 -46l323 -2q47 6 76 48l187 360l96 192h229l-65 -143l-217 -450q-68 -150 -338 -150h-398q-233 0 -233 109zM539 1030l340 338h112l-30 -338h-111l22 215l-219 -213z" />
<glyph unicode="&#xfc;" horiz-adv-x="1081" d="M-45 111q0 16 10 47l230 456l65 131h248l-107 -192l-184 -360q2 -45 78 -46h323q45 4 76 46l187 360l96 192h229l-65 -143l-217 -450q-68 -150 -338 -150h-398q-233 0 -233 109zM432 1044l100 218h240l-104 -218h-236zM821 1044l103 218h237l-102 -218h-238z" />
<glyph unicode="&#xfd;" horiz-adv-x="1081" d="M-266 -295h803q156 0 235 152l76 151l76 148l217 446l61 143h-225l-96 -192l-191 -406l-72 -2l-323 2q-76 0 -78 46l184 360l101 192h-242l-65 -131l-230 -456q-10 -31 -10 -47q0 -109 233 -109l435 2l-48 -90q-49 -70 -157 -74h-611zM643 1049h125l229 319h-206z" />
<glyph unicode="&#xfe;" horiz-adv-x="1081" d="M-266 -291l231 449l277 587h211l-80 -229h375q278 0 284 -143l-108 -221q-68 -150 -338 -150l-480 2l-157 -295h-215zM217 193q2 -45 78 -46l323 -2q47 6 76 48l78 131q-6 47 -63 53h-400z" />
<glyph unicode="&#xff;" horiz-adv-x="1081" d="M-266 -295l73 135h611q109 4 157 74l48 90l-435 -2q-233 0 -233 109q0 16 10 47l230 456l65 131h242l-101 -192l-184 -360q2 -45 78 -46l323 -2l72 2l191 406l96 192h225l-61 -143l-217 -446l-76 -148l-76 -151q-80 -152 -235 -152h-803zM432 1044l100 218h240l-104 -218 h-236zM815 1044l103 218h237l-102 -218h-238z" />
<glyph unicode="&#x152;" horiz-adv-x="2220" d="M-53 158q0 -10 1 -19.5t3 -19.5q27 -123 280 -123h1698l94 149h-854q-68 0 -67 31l4 21l154 297h655l80 151h-664l131 242q70 70 162 69h23h720l93 148l-1700 2q-53 -4 -100.5 -8t-94.5 -13q-170 -53 -266 -192l-342 -680q-10 -23 -10 -55zM195 166q0 25 4 35l354 684 q70 70 162 69h22h518q-18 -18 -49 -59l-340 -680q-12 -29 -12 -57l2 -17h-596q-66 6 -65 25z" />
<glyph unicode="&#x153;" horiz-adv-x="1841" d="M-45 111q0 -109 233 -109h1409l72 143h-635q-76 0 -76 45l54 107h616q113 0 166 102l86 201q68 143 -47 143l-1380 2q-207 4 -258 -131l-230 -456q-10 -31 -10 -47zM217 193l184 360q39 49 117 49h412l-225 -446q0 -4 -1.5 -5t-3.5 -6l-405 2q-76 0 -78 46zM1077 449 l64 102q39 49 119 49h329q98 8 37 -74v-2l-41 -75h-508z" />
<glyph unicode="&#x178;" d="M180 657q-102 -170 94 -165h287l-248 -496h224l81 156l173 335h276q141 0 240 168l133 226l108 213h-69h-176l-254 -447h-627l123 242l114 213h-258zM633 1405h233l103 217h4h-240zM1034 1405h234l102 217h4h-239z" />
<glyph unicode="&#x2c6;" horiz-adv-x="346" d="M252 1030l340 338h113l-31 -338h-111l23 215l-219 -213z" />
<glyph unicode="&#x2dc;" horiz-adv-x="1009" d="M455 1405l102 217h621l-103 -217h-620z" />
<glyph unicode="&#x2000;" horiz-adv-x="872" />
<glyph unicode="&#x2001;" horiz-adv-x="1745" />
<glyph unicode="&#x2002;" horiz-adv-x="872" />
<glyph unicode="&#x2003;" horiz-adv-x="1745" />
<glyph unicode="&#x2004;" horiz-adv-x="581" />
<glyph unicode="&#x2005;" horiz-adv-x="436" />
<glyph unicode="&#x2006;" horiz-adv-x="290" />
<glyph unicode="&#x2007;" horiz-adv-x="290" />
<glyph unicode="&#x2008;" horiz-adv-x="218" />
<glyph unicode="&#x2009;" horiz-adv-x="349" />
<glyph unicode="&#x200a;" horiz-adv-x="96" />
<glyph unicode="&#x2010;" horiz-adv-x="825" d="M27 401l88 152h759l-79 -152h-768z" />
<glyph unicode="&#x2011;" horiz-adv-x="825" d="M27 401l88 152h759l-79 -152h-768z" />
<glyph unicode="&#x2012;" horiz-adv-x="825" d="M27 401l88 152h759l-79 -152h-768z" />
<glyph unicode="&#x2013;" horiz-adv-x="485" d="M27 401l88 150h424l-80 -152z" />
<glyph unicode="&#x2014;" horiz-adv-x="1011" d="M27 401l88 148h956l-80 -152z" />
<glyph unicode="&#x2018;" horiz-adv-x="323" d="M166 1368l201 -434h172l-195 434h-178z" />
<glyph unicode="&#x2019;" horiz-adv-x="323" d="M166 934l194 434h179l-199 -434h-174z" />
<glyph unicode="&#x201a;" horiz-adv-x="380" d="M-113 -4l111 217h252l-176 -373h-129l78 156h-136z" />
<glyph unicode="&#x201c;" horiz-adv-x="665" d="M166 1364h178l195 -434h-172zM510 1368h178l195 -434h-172z" />
<glyph unicode="&#x201d;" horiz-adv-x="665" d="M166 934l194 434h179l-199 -434h-174zM510 930l195 434h178l-199 -434h-174z" />
<glyph unicode="&#x201e;" horiz-adv-x="833" d="M-113 -4l111 217h252l-176 -373h-129l78 156h-136zM317 -4l111 217h252l-176 -373h-129l78 156h-136z" />
<glyph unicode="&#x2022;" horiz-adv-x="616" d="M-43 225q4 -45 78 -47h323q45 6 74 47l186 361q-6 49 -61 49h-98h-201q-78 0 -117 -49z" />
<glyph unicode="&#x2026;" horiz-adv-x="1540" d="M-113 -4l111 217h252l-109 -217h-254zM375 -4l110 217h252l-108 -217h-254zM887 -4l108 217h252l-108 -217h-252z" />
<glyph unicode="&#x202f;" horiz-adv-x="349" />
<glyph unicode="&#x2039;" horiz-adv-x="475" d="M35 475l16 70l418 321l-27 -104l-336 -256l218 -260l-23 -96z" />
<glyph unicode="&#x203a;" horiz-adv-x="442" d="M-16 150l24 104l338 256l-219 260l23 96l268 -325l-17 -70z" />
<glyph unicode="&#x205f;" horiz-adv-x="436" />
<glyph unicode="&#x20ac;" horiz-adv-x="1536" d="M-27 344l258 -2l-65 -129q-10 -31 -10 -55q0 -10 1 -19.5t3 -19.5q31 -123 282 -123h791l92 147h-854q-68 0 -68 23q0 10 1.5 18.5t5.5 16.5l71 141h252l82 96h-285l113 217h250l82 95h-283l70 135q72 70 164 69h743l96 148h-798q-49 0 -97.5 -4t-95.5 -13 q-170 -53 -266 -192l-72 -143h-221l-80 -95h254l-110 -217h-224z" />
<glyph unicode="&#x2122;" horiz-adv-x="1492" d="M313 543h105l219 489h25h47h120l33 70h-149h-203h-158l-33 -70h91h90h26zM690 539h125l47 90q0 6 2 14l172 348h142l-19 -55l-182 -397h106l209 452h41h56q74 0 47 -57l-29 -55l-162 -340h127l211 450q10 96 -74 113h-39h-438h-69l-52 -107l-166 -346z" />
<glyph unicode="&#x25fc;" horiz-adv-x="747" d="M0 0v748h748v-748h-748z" />
</font>
</defs>
</svg>
